<svg width="700" height="746" viewBox="0 0 700 746" fill="none" xmlns="http://www.w3.org/2000/svg">
<path d="M115.171 745.186C115.103 745.236 115.022 745.265 114.938 745.272C114.853 745.279 114.769 745.262 114.693 745.224C114.618 745.186 114.554 745.127 114.51 745.055C114.466 744.983 114.442 744.901 114.441 744.816V562.136C114.441 561.687 114.349 561.243 114.17 560.83C113.991 560.417 113.73 560.045 113.401 559.736C103.675 550.543 94.708 541.499 86.5014 532.606C66.0814 510.473 49.148 486.239 35.7014 459.906C18.8414 426.896 6.93135 389.566 2.42135 352.346C-4.41198 295.939 3.21803 241.873 25.3114 190.146C32.9514 172.273 42.868 154.439 55.0614 136.646C91.0014 84.1959 143.371 43.7959 202.551 21.4059C245.325 5.21922 289.888 -1.78744 336.241 0.385897C378.411 2.3659 410.911 6.86589 461.501 13.0659C499.655 17.7459 535.318 21.0459 568.491 22.9659C582.618 23.7859 596.038 24.1659 608.751 24.1059C610.658 24.0926 611.961 24.8792 612.661 26.4659C616.135 34.3326 619.711 44.0792 623.391 55.7059C624.778 60.0792 632.121 83.8592 645.421 127.046C648.388 136.673 651.588 146.063 655.021 155.216C665.475 183.069 675.338 212.813 684.611 244.446C690.598 264.879 694.731 285.103 697.011 305.116C699.401 326.046 700.471 344.626 698.831 364.676C694.385 419.076 677.811 467.796 649.111 510.836C640.265 524.103 629.068 537.769 615.521 551.836C603.175 564.656 590.501 575.599 577.501 584.666C545.741 606.806 510.871 623.026 474.121 634.456C465.561 637.116 454.441 640.083 440.761 643.356C407.228 651.376 373.515 654.476 339.621 652.656C312.451 651.206 287.221 646.306 261.111 638.956C260.766 638.859 260.402 638.842 260.049 638.906C259.695 638.97 259.361 639.114 259.071 639.326L115.171 745.186ZM215.241 401.856L240.141 426.756C240.296 426.91 240.499 427.004 240.715 427.023C240.931 427.041 241.146 426.982 241.321 426.856C243.821 425.076 246.191 423.059 248.431 420.806C259.925 409.239 290.005 379.069 338.671 330.296C345.945 323.003 352.245 316.596 357.571 311.076C357.639 311.004 357.691 310.919 357.722 310.826C357.754 310.732 357.765 310.633 357.754 310.535C357.744 310.438 357.712 310.343 357.662 310.258C357.611 310.174 357.543 310.101 357.461 310.046C356.261 309.246 355.095 308.279 353.961 307.146C346.121 299.313 309.711 262.889 244.731 197.876C242.765 195.909 241.745 194.893 241.671 194.826C241.507 194.668 241.289 194.58 241.061 194.58C240.834 194.58 240.615 194.668 240.451 194.826L214.151 219.836C214.128 219.858 214.11 219.884 214.097 219.914C214.084 219.943 214.078 219.975 214.078 220.008C214.078 220.04 214.084 220.073 214.097 220.104C214.11 220.134 214.128 220.162 214.151 220.186C253.171 259.306 282.955 288.986 303.501 309.226C304.868 310.573 304.748 312.006 303.141 313.526C292.055 324.059 280.358 335.543 268.051 347.976C249.631 366.586 232.791 382.466 215.231 400.896C215.108 401.026 215.04 401.199 215.042 401.378C215.044 401.557 215.115 401.728 215.241 401.856ZM512.601 390.966C512.601 390.894 512.587 390.822 512.559 390.755C512.532 390.689 512.491 390.628 512.44 390.577C512.389 390.526 512.329 390.485 512.262 390.458C512.195 390.43 512.124 390.416 512.051 390.416H367.931C367.859 390.416 367.788 390.43 367.721 390.458C367.654 390.485 367.594 390.526 367.542 390.577C367.491 390.628 367.451 390.689 367.423 390.755C367.396 390.822 367.381 390.894 367.381 390.966V426.026C367.381 426.098 367.396 426.17 367.423 426.236C367.451 426.303 367.491 426.364 367.542 426.415C367.594 426.466 367.654 426.506 367.721 426.534C367.788 426.562 367.859 426.576 367.931 426.576H512.051C512.124 426.576 512.195 426.562 512.262 426.534C512.329 426.506 512.389 426.466 512.44 426.415C512.491 426.364 512.532 426.303 512.559 426.236C512.587 426.17 512.601 426.098 512.601 426.026V390.966Z" fill="#8A5630"/>
<path d="M215.241 401.856C215.115 401.728 215.044 401.557 215.042 401.378C215.04 401.199 215.108 401.026 215.231 400.896C232.791 382.466 249.631 366.586 268.051 347.976C280.358 335.542 292.054 324.059 303.141 313.526C304.748 312.006 304.868 310.572 303.501 309.226C282.954 288.986 253.171 259.306 214.151 220.186C214.128 220.162 214.109 220.134 214.097 220.104C214.084 220.073 214.078 220.04 214.078 220.008C214.078 219.975 214.084 219.943 214.097 219.914C214.109 219.884 214.128 219.858 214.151 219.836L240.451 194.826C240.615 194.668 240.834 194.58 241.061 194.58C241.289 194.58 241.507 194.668 241.671 194.826C241.744 194.892 242.764 195.909 244.731 197.876C309.711 262.889 346.121 299.312 353.961 307.146C355.094 308.279 356.261 309.246 357.461 310.046C357.543 310.101 357.611 310.174 357.661 310.258C357.712 310.343 357.744 310.437 357.754 310.535C357.765 310.633 357.754 310.732 357.722 310.826C357.69 310.919 357.639 311.004 357.571 311.076C352.244 316.596 345.944 323.002 338.671 330.296C290.004 379.069 259.924 409.239 248.431 420.806C246.191 423.059 243.821 425.076 241.321 426.856C241.146 426.982 240.931 427.041 240.715 427.023C240.499 427.004 240.296 426.91 240.141 426.756L215.241 401.856Z" fill="#FAF2E0"/>
<path d="M512.051 390.416H367.931C367.628 390.416 367.381 390.662 367.381 390.966V426.026C367.381 426.33 367.628 426.576 367.931 426.576H512.051C512.355 426.576 512.601 426.33 512.601 426.026V390.966C512.601 390.662 512.355 390.416 512.051 390.416Z" fill="#FAF2E0"/>
</svg>
